<svg xmlns="http://www.w3.org/2000/svg" viewBox="0 0 512 512">
  <defs>
    <linearGradient id="grad" x1="0%" y1="0%" x2="100%" y2="100%">
      <stop offset="0%" style="stop-color:#8b5cf6;stop-opacity:1" />
      <stop offset="50%" style="stop-color:#a855f7;stop-opacity:1" />
      <stop offset="100%" style="stop-color:#d946ef;stop-opacity:1" />
    </linearGradient>
  </defs>
  
  <!-- 背景圆形 -->
  <circle cx="256" cy="256" r="256" fill="url(#grad)"/>
  
  <!-- 羽毛图标 -->
  <g transform="translate(256, 256)">
    <!-- 羽毛主体 -->
    <path d="M -40 -120 Q -50 -80, -45 -40 Q -40 0, -35 40 Q -30 80, -25 120 L -15 120 Q -10 80, -5 40 Q 0 0, 5 -40 Q 10 -80, 0 -120 Z" 
          fill="white" opacity="0.95"/>
    
    <!-- 羽毛纹理 -->
    <path d="M -35 -100 L -60 -90" stroke="white" stroke-width="3" opacity="0.7" stroke-linecap="round"/>
    <path d="M -33 -70 L -55 -60" stroke="white" stroke-width="3" opacity="0.7" stroke-linecap="round"/>
    <path d="M -30 -40 L -50 -30" stroke="white" stroke-width="3" opacity="0.7" stroke-linecap="round"/>
    <path d="M -28 -10 L -45 0" stroke="white" stroke-width="3" opacity="0.7" stroke-linecap="round"/>
    <path d="M -25 20 L -40 30" stroke="white" stroke-width="3" opacity="0.7" stroke-linecap="round"/>
    <path d="M -23 50 L -35 60" stroke="white" stroke-width="3" opacity="0.7" stroke-linecap="round"/>
    <path d="M -20 80 L -30 90" stroke="white" stroke-width="3" opacity="0.7" stroke-linecap="round"/>
    
    <path d="M -5 -100 L 20 -90" stroke="white" stroke-width="3" opacity="0.7" stroke-linecap="round"/>
    <path d="M -3 -70 L 15 -60" stroke="white" stroke-width="3" opacity="0.7" stroke-linecap="round"/>
    <path d="M 0 -40 L 10 -30" stroke="white" stroke-width="3" opacity="0.7" stroke-linecap="round"/>
    <path d="M 2 -10 L 5 0" stroke="white" stroke-width="3" opacity="0.7" stroke-linecap="round"/>
  </g>
</svg>
