<svg xmlns="http://www.w3.org/2000/svg" viewBox="0 0 512 512" role="img" aria-label="La Pluma">
  <rect width="512" height="512" fill="#071014"/>

  <g transform="translate(256 256) scale(.86) translate(-266 -257.5)">
    <path
      fill="#f7fbfc"
      d="M128 405c18-50 43-110 78-160 51-75 127-132 215-150-8 74-45 143-105 197-47 42-103 68-163 77l-25 36Z"
    />

    <path
      fill="#071014"
      d="m175 328-41 2 58-52 26 7-43 43Zm44-71-43-3 62-48 25 11-44 40Zm74 55 15-31 54 1-69 30Zm41-49 10-31 52-15-62 46Zm32-53 5-31 35-21-40 52Z"
    />

    <path
      fill="#071014"
      d="M139 405c24-38 51-75 81-111 48-58 99-105 154-141-45 43-89 91-129 144-27 36-51 73-72 111l-34-3Z"
    />

    <path
      fill="#22d3ee"
      d="M111 420c8-21 22-45 43-71 33-42 77-87 130-132-39 44-72 84-99 122-20 28-34 53-43 75l-31 6Z"
    />

    <path
      fill="#a5f3fc"
      d="M117 412c10-18 24-38 42-60 16-21 35-42 57-64-18 23-34 45-48 66-14 21-25 38-32 53l-19 5Z"
    />
  </g>
</svg>
